<svg width="25" height="25" viewBox="0 0 25 25" fill="none" xmlns="http://www.w3.org/2000/svg">
<path d="M22.3047 18.5059C22.9087 17.4054 23.2314 16.1726 23.244 14.9173C23.2566 13.662 22.9587 12.423 22.3769 11.3106C21.7951 10.1982 20.9473 9.24679 19.9091 8.5411C18.8708 7.8354 17.6742 7.39725 16.4258 7.26564C16.0295 6.31111 15.4432 5.4472 14.7024 4.7265C13.9616 4.00579 13.082 3.44338 12.1169 3.07348C11.1519 2.70358 10.1216 2.53394 9.08892 2.57489C8.05622 2.61583 7.04266 2.8665 6.10992 3.31164C5.17718 3.75678 4.34479 4.38708 3.66341 5.16416C2.98202 5.94125 2.4659 6.84887 2.14647 7.83178C1.82703 8.81468 1.71095 9.85231 1.80531 10.8815C1.89966 11.9107 2.20247 12.9099 2.69531 13.8184L2.07031 16.0156C2.01397 16.216 2.01202 16.4278 2.06466 16.6292C2.11729 16.8305 2.22262 17.0143 2.3698 17.1615C2.51698 17.3086 2.70071 17.414 2.90209 17.4666C3.10347 17.5192 3.31524 17.5173 3.51562 17.461L5.71288 16.8359C6.59697 17.3238 7.56995 17.6293 8.57421 17.7344C8.98103 18.727 9.59292 19.6225 10.3698 20.3622C11.1467 21.102 12.0711 21.6693 13.0825 22.027C14.0938 22.3847 15.1693 22.5247 16.2386 22.438C17.3078 22.3512 18.3467 22.0396 19.2871 21.5234L21.4844 22.1485C21.6851 22.2082 21.8982 22.2126 22.1012 22.1612C22.3042 22.1097 22.4895 22.0044 22.6376 21.8564C22.7857 21.7083 22.891 21.523 22.9424 21.32C22.9938 21.117 22.9894 20.9038 22.9297 20.7031L22.3047 18.5059ZM5.79101 15.6152C5.73434 15.6147 5.67805 15.6246 5.62499 15.6445L3.19335 16.3379L3.88671 13.9063C3.91109 13.8301 3.91847 13.7496 3.90835 13.6703C3.89823 13.591 3.87084 13.5148 3.82812 13.4473C3.029 12.0987 2.74959 10.5048 3.04234 8.96474C3.33509 7.42472 4.17987 6.04451 5.4181 5.08319C6.65633 4.12188 8.20287 3.64556 9.76739 3.74366C11.3319 3.84175 12.8068 4.50752 13.9153 5.61597C15.0237 6.72443 15.6895 8.19935 15.7876 9.76387C15.8857 11.3284 15.4094 12.8749 14.4481 14.1132C13.4867 15.3514 12.1065 16.1962 10.5665 16.4889C9.02651 16.7817 7.43259 16.5023 6.08398 15.7031C5.9969 15.6461 5.89512 15.6155 5.79101 15.6152ZM21.1133 18.5938L21.8066 21.0254L19.375 20.332C19.2989 20.3077 19.2183 20.3003 19.139 20.3104C19.0597 20.3205 18.9836 20.3479 18.916 20.3906C18.1561 20.84 17.312 21.1288 16.4361 21.239C15.5601 21.3492 14.6708 21.2786 13.8233 21.0315C12.9757 20.7843 12.1878 20.366 11.5084 19.8022C10.8289 19.2385 10.2723 18.5413 9.87304 17.7539C11.8015 17.6252 13.6092 16.7692 14.9307 15.3588C16.2523 13.9485 16.989 12.089 16.9922 10.1563C16.99 9.60105 16.9278 9.04771 16.8066 8.50587C17.8261 8.69735 18.7843 9.13166 19.6003 9.77205C20.4163 10.4124 21.0659 11.24 21.4942 12.1847C21.9225 13.1294 22.1168 14.1634 22.0607 15.1992C22.0046 16.2349 21.6997 17.2419 21.1719 18.1348C21.1291 18.2024 21.1018 18.2785 21.0916 18.3578C21.0815 18.4371 21.0889 18.5176 21.1133 18.5938Z" fill="white" fill-opacity="0.75"/>
</svg>
