<svg width="25" height="25" viewBox="0 0 25 25" fill="none" xmlns="http://www.w3.org/2000/svg">
<path d="M12.5 22.9166C13.1451 22.9175 13.7744 22.7173 14.3005 22.3439C14.8266 21.9705 15.2233 21.4425 15.4354 20.8333H9.56458C9.77673 21.4425 10.1734 21.9705 10.6995 22.3439C11.2256 22.7173 11.8549 22.9175 12.5 22.9166ZM19.7917 15.1937V10.4166C19.7917 7.0656 17.5156 4.24269 14.4323 3.39373C14.1271 2.62498 13.3813 2.08331 12.5 2.08331C11.6188 2.08331 10.8729 2.62498 10.5677 3.39373C7.48438 4.24373 5.20833 7.0656 5.20833 10.4166V15.1937L3.43021 16.9719C3.33329 17.0684 3.25643 17.1832 3.20405 17.3096C3.15167 17.436 3.1248 17.5715 3.125 17.7083V18.75C3.125 19.0262 3.23475 19.2912 3.4301 19.4865C3.62545 19.6819 3.8904 19.7916 4.16667 19.7916H20.8333C21.1096 19.7916 21.3746 19.6819 21.5699 19.4865C21.7653 19.2912 21.875 19.0262 21.875 18.75V17.7083C21.8752 17.5715 21.8483 17.436 21.796 17.3096C21.7436 17.1832 21.6667 17.0684 21.5698 16.9719L19.7917 15.1937Z" fill="white" fill-opacity="0.75"/>
</svg>
