<svg width="16" height="16" viewBox="0 0 16 16" fill="none" xmlns="http://www.w3.org/2000/svg">
<path d="M12.2165 11.6491L14.1271 13.5587C14.2162 13.651 14.2655 13.7745 14.2644 13.9028C14.2633 14.031 14.2118 14.1537 14.1211 14.2444C14.0304 14.3351 13.9077 14.3866 13.7795 14.3877C13.6512 14.3888 13.5277 14.3395 13.4354 14.2504L11.5248 12.3398C10.2763 13.4095 8.66193 13.954 7.02054 13.8591C5.37916 13.7643 3.83832 13.0373 2.72134 11.8309C1.60437 10.6244 0.998101 9.03224 1.02974 7.38842C1.06139 5.74459 1.72848 4.17692 2.89106 3.01435C4.05363 1.85178 5.6213 1.18468 7.26512 1.15303C8.90895 1.12139 10.5011 1.72767 11.7076 2.84464C12.914 3.96161 13.641 5.50245 13.7359 7.14383C13.8307 8.78522 13.2862 10.3996 12.2165 11.6481V11.6491ZM7.38759 12.8915C8.81462 12.8915 10.1832 12.3246 11.1923 11.3156C12.2013 10.3065 12.7682 8.93791 12.7682 7.51088C12.7682 6.08384 12.2013 4.71525 11.1923 3.70619C10.1832 2.69712 8.81462 2.13023 7.38759 2.13023C5.96055 2.13023 4.59196 2.69712 3.5829 3.70619C2.57383 4.71525 2.00694 6.08384 2.00694 7.51088C2.00694 8.93791 2.57383 10.3065 3.5829 11.3156C4.59196 12.3246 5.96055 12.8915 7.38759 12.8915Z" fill="#A2A3A4"/>
</svg>
